<svg id="svg" xmlns="http://www.w3.org/2000/svg" xmlns:xlink="http://www.w3.org/1999/xlink" width="400" height="400" viewBox="0, 0, 400,400"><g id="svgg"><path id="path0" d="M152.778 4.308 C -31.061 43.679,-57.588 304.907,113.889 387.270 L 137.500 398.611 198.866 398.611 L 260.232 398.611 286.366 385.606 C 499.996 279.299,386.143 -45.669,152.778 4.308 M220.696 30.769 C 235.518 47.176,248.069 75.034,255.014 106.944 L 257.432 118.056 199.551 118.056 C 167.716 118.056,141.668 117.883,141.668 117.672 C 141.653 112.750,157.483 65.456,162.380 55.792 C 181.660 17.745,201.311 9.313,220.696 30.769 M157.692 27.083 C 147.604 38.539,130.583 82.370,123.807 114.338 C 121.555 124.962,103.405 128.082,92.725 119.681 C 76.870 107.209,51.855 116.090,49.468 135.039 C 48.852 139.925,44.516 144.171,34.060 150.124 L 19.509 158.409 26.068 140.339 C 44.814 88.695,85.321 48.116,137.500 28.710 C 158.733 20.814,163.555 20.425,157.692 27.083 M290.276 42.951 C 323.638 61.609,355.665 99.266,369.395 135.980 C 377.328 157.192,377.564 157.042,354.095 145.720 C 343.377 140.549,322.133 133.014,306.887 128.975 C 273.712 120.186,279.128 125.479,271.157 94.055 C 267.475 79.542,259.656 58.380,253.782 47.028 C 247.908 35.677,242.686 25.487,242.179 24.385 C 240.487 20.709,272.823 33.191,290.276 42.951 M253.257 137.818 C 259.445 139.000,261.023 141.172,262.731 150.868 C 265.785 168.196,264.996 252.781,261.751 256.027 C 254.706 263.072,154.479 264.791,141.402 258.091 C 133.567 254.076,132.388 147.242,140.094 139.536 C 145.131 134.499,229.191 133.223,253.257 137.818 M118.056 198.598 L 118.056 255.531 108.333 253.832 C 57.871 245.011,10.640 214.414,15.977 194.003 C 19.684 179.827,51.278 158.626,60.968 163.812 C 75.242 171.451,100.000 161.675,100.000 148.399 C 100.000 145.306,104.202 143.558,115.278 142.043 C 117.052 141.801,118.056 162.240,118.056 198.598 M319.091 151.981 C 372.324 168.530,393.582 194.880,371.508 216.953 C 358.936 229.526,298.514 255.678,282.328 255.553 C 282.117 255.551,281.944 229.980,281.944 198.728 L 281.944 141.906 288.889 143.328 C 292.708 144.111,306.299 148.004,319.091 151.981 M179.034 182.350 C 169.496 192.642,169.499 211.418,179.040 220.960 C 195.723 237.642,222.222 225.306,222.222 200.857 C 222.222 176.761,195.018 165.103,179.034 182.350 M91.763 268.564 L 120.961 276.043 127.054 303.994 C 131.020 322.185,137.470 340.668,145.526 356.928 C 160.123 386.389,160.541 384.749,140.209 377.754 C 82.104 357.763,32.763 304.149,20.967 248.185 L 19.121 239.425 40.843 250.255 C 52.790 256.212,75.704 264.451,91.763 268.564 M371.304 264.805 C 351.094 320.482,281.429 383.333,239.927 383.333 C 239.448 383.333,242.144 378.784,245.917 373.223 C 249.690 367.663,252.778 362.038,252.778 360.723 C 252.778 359.409,256.587 358.333,261.244 358.333 C 280.094 358.333,290.865 329.771,278.124 313.569 C 273.535 307.733,273.256 305.059,275.786 291.108 L 278.657 275.272 292.801 272.295 C 315.607 267.495,347.540 256.130,362.500 247.488 C 379.349 237.756,380.384 239.790,371.304 264.805 M257.126 290.278 C 256.193 296.389,253.351 302.639,250.811 304.167 C 236.149 312.983,232.645 320.146,234.283 337.953 C 236.509 362.158,218.387 386.806,198.365 386.806 C 179.082 386.806,151.196 337.955,143.264 290.278 L 141.415 279.167 200.119 279.167 L 258.823 279.167 257.126 290.278 " stroke="none" fill="#000000" fill-rule="evenodd"></path></g></svg>